<mxfile host="app.diagrams.net" modified="2023-06-16T07:36:26.963Z" agent="Mozilla/5.0 (Macintosh; Intel Mac OS X 10_15_7) AppleWebKit/537.36 (KHTML, like Gecko) Chrome/114.0.0.0 Safari/537.36" version="21.1.1" etag="IY7-l7364oAypXIuZ79R" type="github">
  <diagram name="第 1 页" id="lLco3dWGZe780mpnuo3f">
    <mxGraphModel>
      <root>
        <mxCell id="0" />
        <mxCell id="1" parent="0" />
      </root>
    </mxGraphModel>
  </diagram>
</mxfile>
